<mxfile host="app.diagrams.net" agent="Mozilla/5.0 (X11; Linux x86_64) AppleWebKit/537.36 (KHTML, like Gecko) Chrome/127.0.0.0 Safari/537.36" version="24.7.6">
  <diagram name="Pagina-1" id="QPDk3ql1Q9VemHpdfvj6">
    <mxGraphModel dx="1434" dy="780" grid="1" gridSize="10" guides="1" tooltips="1" connect="1" arrows="1" fold="1" page="1" pageScale="1" pageWidth="3300" pageHeight="2339" math="0" shadow="0">
      <root>
        <mxCell id="0" />
        <mxCell id="1" parent="0" />
        <mxCell id="TDtZYilfws2Fa61q5QjQ-16" style="edgeStyle=orthogonalEdgeStyle;rounded=0;orthogonalLoop=1;jettySize=auto;html=1;" edge="1" parent="1" source="TDtZYilfws2Fa61q5QjQ-1">
          <mxGeometry relative="1" as="geometry">
            <mxPoint x="680" y="270" as="targetPoint" />
          </mxGeometry>
        </mxCell>
        <mxCell id="TDtZYilfws2Fa61q5QjQ-1" value="&lt;b&gt;&lt;font style=&quot;font-size: 18px;&quot;&gt;Load&lt;/font&gt;&lt;/b&gt;" style="rounded=1;whiteSpace=wrap;html=1;fillColor=#dae8fc;strokeColor=#6c8ebf;" vertex="1" parent="1">
          <mxGeometry x="480" y="240" width="120" height="60" as="geometry" />
        </mxCell>
        <mxCell id="TDtZYilfws2Fa61q5QjQ-17" style="edgeStyle=orthogonalEdgeStyle;rounded=0;orthogonalLoop=1;jettySize=auto;html=1;exitX=0;exitY=0.5;exitDx=0;exitDy=0;startArrow=classic;startFill=1;endArrow=none;endFill=0;" edge="1" parent="1" source="TDtZYilfws2Fa61q5QjQ-2">
          <mxGeometry relative="1" as="geometry">
            <mxPoint x="760" y="270" as="targetPoint" />
          </mxGeometry>
        </mxCell>
        <mxCell id="TDtZYilfws2Fa61q5QjQ-18" value="" style="edgeStyle=orthogonalEdgeStyle;rounded=0;orthogonalLoop=1;jettySize=auto;html=1;" edge="1" parent="1" source="TDtZYilfws2Fa61q5QjQ-2" target="TDtZYilfws2Fa61q5QjQ-3">
          <mxGeometry relative="1" as="geometry" />
        </mxCell>
        <mxCell id="TDtZYilfws2Fa61q5QjQ-2" value="&lt;b&gt;&lt;font style=&quot;font-size: 18px;&quot;&gt;Compile&lt;/font&gt;&lt;/b&gt;" style="rounded=1;whiteSpace=wrap;html=1;fillColor=#e1d5e7;strokeColor=#9673a6;" vertex="1" parent="1">
          <mxGeometry x="820" y="240" width="120" height="60" as="geometry" />
        </mxCell>
        <mxCell id="TDtZYilfws2Fa61q5QjQ-19" value="" style="edgeStyle=orthogonalEdgeStyle;rounded=0;orthogonalLoop=1;jettySize=auto;html=1;" edge="1" parent="1" source="TDtZYilfws2Fa61q5QjQ-3" target="TDtZYilfws2Fa61q5QjQ-9">
          <mxGeometry relative="1" as="geometry" />
        </mxCell>
        <mxCell id="TDtZYilfws2Fa61q5QjQ-3" value="&lt;b&gt;&lt;font style=&quot;font-size: 18px;&quot;&gt;Assemble&lt;/font&gt;&lt;/b&gt;" style="rounded=1;whiteSpace=wrap;html=1;fillColor=#fff2cc;strokeColor=#d6b656;" vertex="1" parent="1">
          <mxGeometry x="1040" y="240" width="120" height="60" as="geometry" />
        </mxCell>
        <mxCell id="TDtZYilfws2Fa61q5QjQ-15" value="" style="edgeStyle=orthogonalEdgeStyle;rounded=0;orthogonalLoop=1;jettySize=auto;html=1;" edge="1" parent="1" source="TDtZYilfws2Fa61q5QjQ-7" target="TDtZYilfws2Fa61q5QjQ-1">
          <mxGeometry relative="1" as="geometry" />
        </mxCell>
        <mxCell id="TDtZYilfws2Fa61q5QjQ-7" value="" style="ellipse;fillColor=strokeColor;html=1;" vertex="1" parent="1">
          <mxGeometry x="386" y="255" width="30" height="30" as="geometry" />
        </mxCell>
        <mxCell id="TDtZYilfws2Fa61q5QjQ-9" value="" style="ellipse;html=1;shape=endState;fillColor=strokeColor;" vertex="1" parent="1">
          <mxGeometry x="1250" y="255" width="30" height="30" as="geometry" />
        </mxCell>
        <mxCell id="TDtZYilfws2Fa61q5QjQ-11" value="Single&lt;div&gt;Document&lt;/div&gt;" style="html=1;verticalLabelPosition=bottom;align=center;labelBackgroundColor=#ffffff;verticalAlign=top;strokeWidth=2;strokeColor=#0080F0;shadow=0;dashed=0;shape=mxgraph.ios7.icons.document;" vertex="1" parent="1">
          <mxGeometry x="700" y="180" width="40" height="60" as="geometry" />
        </mxCell>
        <mxCell id="TDtZYilfws2Fa61q5QjQ-12" value="Dossier" style="html=1;verticalLabelPosition=bottom;align=center;labelBackgroundColor=#ffffff;verticalAlign=top;strokeWidth=2;strokeColor=#0080F0;shadow=0;dashed=0;shape=mxgraph.ios7.icons.documents;" vertex="1" parent="1">
          <mxGeometry x="700" y="290" width="50" height="70" as="geometry" />
        </mxCell>
        <mxCell id="TDtZYilfws2Fa61q5QjQ-20" value="Build" style="swimlane;whiteSpace=wrap;html=1;fillColor=#f5f5f5;strokeColor=#666666;fontColor=#333333;" vertex="1" parent="1">
          <mxGeometry x="790" y="185" width="420" height="155" as="geometry" />
        </mxCell>
      </root>
    </mxGraphModel>
  </diagram>
</mxfile>
